<?xml version="1.0" standalone="no"?>
<!DOCTYPE svg PUBLIC "-//W3C//DTD SVG 20010904//EN"
 "http://www.w3.org/TR/2001/REC-SVG-20010904/DTD/svg10.dtd">
<svg version="1.0" xmlns="http://www.w3.org/2000/svg"
 width="256.000000pt" height="256.000000pt" viewBox="0 0 256.000000 256.000000"
 preserveAspectRatio="xMidYMid meet">
<metadata>
Created by potrace 1.14, written by Peter Selinger 2001-2017
</metadata>
<g transform="translate(0.000000,256.000000) scale(0.100000,-0.100000)"
fill="#000000" stroke="none">
<path d="M1080 2379 c-143 -29 -193 -45 -301 -100 -317 -159 -541 -462 -603
-814 -13 -77 -15 -310 -2 -365 3 -14 8 -38 12 -55 10 -54 54 -184 81 -243 65
-140 213 -324 328 -408 22 -16 42 -31 45 -34 3 -3 27 -19 54 -34 212 -123 377
-166 611 -161 263 5 472 80 677 243 208 166 355 414 402 677 12 73 15 332 3
375 -2 8 -7 33 -11 55 -13 68 -56 186 -98 270 -143 285 -412 501 -723 579
-105 26 -117 28 -255 30 -97 2 -159 -2 -220 -15z m679 -713 c66 -34 82 -120
34 -177 -49 -58 -581 -587 -602 -598 -11 -6 -39 -11 -62 -11 -42 0 -46 4 -211
167 -174 173 -189 196 -174 257 15 59 80 98 145 88 18 -3 114 -89 244 -218 3
-3 111 99 240 228 129 129 246 244 262 256 32 26 83 29 124 8z"/>
</g>
</svg>
